Coordinates
version=1
nRows=29
nColumns=24
inDegrees=yes

Units are S.I. units (second, meters, Newtons, ...)
Angles are in degrees.

endheader
time	pelvis_tilt	pelvis_list	pelvis_rotation	pelvis_tx	pelvis_ty	pelvis_tz	hip_flexion_r	hip_adduction_r	hip_rotation_r	knee_angle_r	ankle_angle_r	subtalar_angle_r	mtp_angle_r	hip_flexion_l	hip_adduction_l	hip_rotation_l	knee_angle_l	ankle_angle_l	subtalar_angle_l	mtp_angle_l	lumbar_extension	lumbar_bending	lumbar_rotation
      0.72900000	      0.42081492	     -3.80107517	      6.92399938	     -0.39404727	      1.03400259	      0.29254430	      7.91428068	      9.87259415	     -2.45602724	    -12.97318391	      3.74233616	    -12.88852953	      7.19697770	     17.28748693	     -7.45336780	     -1.69386896	    -67.16712263	     -5.84476645	     -1.84139267	      1.71751275	     -4.17576873	      1.93425240	     -3.35498921
      0.73316667	      0.49844634	     -3.68604325	      6.84659179	     -0.38880551	      1.03467699	      0.29308701	      7.42891304	      9.83881218	     -2.33099524	    -12.84839502	      3.86744307	    -12.83566001	      7.10262003	     17.66525468	     -7.37565697	     -1.83437400	    -66.79879259	     -5.07696193	     -2.00491071	      1.69632154	     -4.31763641	      1.74955944	     -3.22815587
      0.73733333	      0.56471199	     -3.55902666	      6.76012000	     -0.38357002	      1.03533340	      0.29360731	      6.95086376	      9.78667261	     -2.19964862	    -12.71921053	      3.99977216	    -12.76694166	      7.00851529	     18.03199296	     -7.27552020	     -1.97825164	    -66.36305450	     -4.32316748	     -2.13689791	      1.67709932	     -4.44296284	      1.56444476	     -3.09574004
      0.74150000	      0.64347343	     -3.43929063	      6.66526116	     -0.37833737	      1.03599336	      0.29410461	      6.45513435	      9.73938381	     -2.07405777	    -12.57897442	      4.13447026	    -12.68623642	      6.90753196	     18.36664671	     -7.18185365	     -2.12738834	    -65.86827990	     -3.57587009	     -2.23364095	      1.65776778	     -4.57349121	      1.39312827	     -2.94865478
      0.74566667	      0.70043268	     -3.31074348	      6.56065719	     -0.37310931	      1.03661357	      0.29459020	      5.98207621	      9.67672123	     -1.95402647	    -12.44016655	      4.27540229	    -12.59320015	      6.79003631	     18.70343842	     -7.07215534	     -2.28481862	    -65.31032624	     -2.84919738	     -2.30765458	      1.63492767	     -4.67661206	      1.20419605	     -2.79040367
      0.74983333	      0.76093452	     -3.18701602	      6.44846072	     -0.36792665	      1.03721294	      0.29503567	      5.50964941	      9.61390437	     -1.83576236	    -12.30384417	      4.41011711	    -12.49895079	      6.68169079	     19.02271908	     -6.95878686	     -2.43837147	    -64.69916328	     -2.13006115	     -2.36814544	      1.61740809	     -4.80071884	      1.03725822	     -2.65032369
      0.75400000	      0.82704341	     -3.04975607	      6.32943503	     -0.36273127	      1.03782787	      0.29545991	      5.01653831	      9.53417782	     -1.71689590	    -12.14246617	      4.55707678	    -12.37301172	      6.53732195	     19.30813276	     -6.82679472	     -2.59854119	    -64.01659537	     -1.44193526	     -2.40313705	      1.59034522	     -4.91919419	      0.83594905	     -2.46943221
      0.75816667	      0.84757608	     -2.90627814	      6.19065409	     -0.35760614	      1.03833557	      0.29584696	      4.59749535	      9.43467873	     -1.61312207	    -12.03237505	      4.76347476	    -12.20167590	      5.48033888	     19.62788027	     -6.66761132	     -2.75652099	    -63.28177398	     -0.79227756	     -2.49283722	      1.30829743	     -4.99447281	      0.63300317	     -2.10934620
      0.76233333	      0.89480061	     -2.76227254	      6.04725285	     -0.35247333	      1.03887739	      0.29620908	      4.13283781	      9.33751478	     -1.48106554	    -11.88195583	      4.88439970	    -12.11704848	      5.42190182	     19.89351653	     -6.51393487	     -2.92559970	    -62.48264157	     -0.11005947	     -2.46460141	      1.30940745	     -5.11836814	      0.46370795	     -2.13423267
      0.76650000	      0.96054267	     -2.62704475	      5.90785798	     -0.34735227	      1.03943311	      0.29651326	      3.63679291	      9.24569043	     -1.36169343	    -11.70262013	      5.02089668	    -11.98128383	      5.33286772	     20.12276810	     -6.35835130	     -3.07536469	    -61.62422290	      0.52277435	     -2.45465796	      1.30149768	     -5.24833127	      0.29162866	     -1.98485974
      0.77066667	      0.97616511	     -2.47297983	      5.74092831	     -0.34229203	      1.03987309	      0.29680946	      3.21999791	      9.12277378	     -1.24089538	    -11.57555133	      5.16331672	    -11.88043663	      5.27351880	     20.38352977	     -6.17159315	     -3.24272708	    -60.70640928	      1.12678849	     -2.47298027	      1.29967636	     -5.34292486	      0.10449593	     -1.86318737
      0.77483333	      0.99785310	     -2.32369312	      5.57436088	     -0.33722103	      1.04031155	      0.29706863	      2.78590329	      9.00181547	     -1.12211085	    -11.42398617	      5.30798009	    -11.74997012	      5.21096253	     20.61536543	     -5.98343224	     -3.39960841	    -59.72655145	      1.69845703	     -2.48488279	      1.29555487	     -5.43359080	     -0.07570349	     -1.70512792
      0.77900000	      1.02484747	     -2.18721760	      5.40748139	     -0.33216948	      1.04071397	      0.29727691	      2.34532330	      8.88743675	     -1.03034728	    -11.26281929	      5.47283588	    -11.55239839	      5.05307029	     20.82764182	     -5.80153674	     -3.54845361	    -58.69666499	      2.24293459	     -2.51613009	      1.26332242	     -5.51959556	     -0.23531876	     -1.43509977
      0.78316667	      1.04400526	     -2.03663952	      5.22720562	     -0.32713157	      1.04109737	      0.29748627	      1.91256815	      8.75768316	     -0.90130650	    -11.10286349	      5.63618973	    -11.42599747	      4.95481461	     21.01997094	     -5.60213665	     -3.70526133	    -57.59461337	      2.72162409	     -2.54360170	      1.24276085	     -5.60021714	     -0.41357420	     -1.29437901
      0.78733333	      1.04475738	     -1.87835136	      5.03546549	     -0.32212750	      1.04143329	      0.29766985	      1.51223580	      8.61193788	     -0.78174519	    -10.96328950	      5.77759818	    -11.31555057	      4.88659482	     21.20898411	     -5.38472064	     -3.86395346	    -56.43048572	      3.17656594	     -2.61654576	      1.22717805	     -5.68072917	     -0.59566006	     -1.16137312
      0.79150000	      1.05017321	     -1.73171083	      4.84620166	     -0.31711710	      1.04173212	      0.29782304	      1.10120506	      8.47536963	     -0.66615285	    -10.80823516	      5.92731540	    -11.18270547	      4.81502287	     21.37439960	     -5.17409937	     -4.00821606	    -55.21221831	      3.59042332	     -2.71763360	      1.20511955	     -5.75446879	     -0.75965375	     -0.99212202
      0.79566667	      1.02447291	     -1.60078512	      4.65436696	     -0.31211158	      1.04194803	      0.29796089	      0.72732396	      8.35058210	     -0.54665405	    -10.65426309	      6.07232088	    -11.05405157	      4.74542173	     21.55776772	     -4.97336511	     -4.14404534	    -53.94316123	      3.96150721	     -2.85238725	      1.17795134	     -5.78737235	     -0.90507363	     -0.82619484
      0.79983333	      1.04159278	     -1.47169419	      4.47073400	     -0.30709901	      1.04219341	      0.29806426	      0.29663048	      8.22684438	     -0.44102022	    -10.47507593	      6.23660470	    -10.89475871	      4.64189374	     21.67205830	     -4.77338463	     -4.27310512	    -52.61181524	      4.25884554	     -3.04047232	      1.12631477	     -5.85449027	     -1.04122698	     -0.60081079
      0.80400000	      1.02700696	     -1.34517375	      4.27716699	     -0.30210491	      1.04237959	      0.29815747	     -0.08767938	      8.09981540	     -0.32349950	    -10.31717060	      6.37670651	    -10.75164729	      4.52136452	     21.79535705	     -4.56423423	     -4.38853683	    -51.21684496	      4.53062763	     -3.27631618	      1.05657720	     -5.91046483	     -1.17880576	     -0.40941489
      0.80816667	      0.99742558	     -1.22910837	      4.08663704	     -0.29709320	      1.04249580	      0.29824970	     -0.45589748	      7.98226012	     -0.20728958	    -10.15708962	      6.52274790	    -10.64109512	      4.40963486	     21.91606884	     -4.36806992	     -4.50780949	    -49.77046351	      4.74199074	     -3.54540293	      0.98048564	     -5.92732499	     -1.30203848	     -0.24686365
      0.81233333	      0.97813890	     -1.11754751	      3.89794485	     -0.29208487	      1.04259733	      0.29833208	     -0.83470818	      7.86858394	     -0.08623449	     -9.99467193	      6.65644664	    -10.52468980	      4.29121902	     22.00213777	     -4.17169287	     -4.61647257	    -48.26467420	      4.91820217	     -3.86307679	      0.88874918	     -5.96746870	     -1.41888740	     -0.07590247
      0.81650000	      0.93679264	     -1.01692605	      3.71121425	     -0.28705166	      1.04261774	      0.29841051	     -1.18714458	      7.76355862	      0.03166625	     -9.83580990	      6.80047982	    -10.43959258	      4.18742988	     22.09184686	     -3.98879050	     -4.73472529	    -46.70943163	      5.03663757	     -4.21782542	      0.79496437	     -5.96156068	     -1.52806057	      0.07455857
      0.82066667	      0.89477173	     -0.92916524	      3.52933311	     -0.28201813	      1.04262324	      0.29846601	     -1.53902554	      7.66985461	      0.15835710	     -9.67297826	      6.91601955	    -10.33779489	      4.05913493	     22.15907437	     -3.80844898	     -4.82478852	    -45.09646619	      5.12045697	     -4.63397292	      0.66863882	     -5.97895969	     -1.61978854	      0.24577693
      0.82483333	      0.83320043	     -0.85028069	      3.35447049	     -0.27696391	      1.04253980	      0.29851548	     -1.86174994	      7.58244096	      0.25534024	     -9.52512625	      7.03855567	    -10.24209169	      3.87957963	     22.22770965	     -3.63821736	     -4.92408871	    -43.43669053	      5.18093171	     -5.09192220	      0.47720284	     -5.94251749	     -1.70152868	      0.41761931
      0.82900000	      0.77946317	     -0.77957904	      3.18280914	     -0.27188122	      1.04244831	      0.29858338	     -2.20434458	      7.50877972	      0.39935271	     -9.35767758	      7.18344161	    -10.19705524	      3.78232713	     22.26228257	     -3.48277618	     -5.03502200	    -41.71882022	      5.15600827	     -5.53329462	      0.35515529	     -5.91615153	     -1.76998246	      0.52992173
      0.83316667	      0.73008267	     -0.71435670	      3.01800414	     -0.26678463	      1.04232704	      0.29862482	     -2.54751288	      7.43710095	      0.52672829	     -9.19639774	      7.30060868	    -10.13516414	      3.67871342	     22.26756174	     -3.32625997	     -5.13650264	    -39.94887556	      5.11823999	     -6.03608416	      0.21623549	     -5.89989404	     -1.84084114	      0.67210178
      0.83733333	      0.66946545	     -0.66833465	      2.85928916	     -0.26167573	      1.04214348	      0.29866333	     -2.87100161	      7.38524469	      0.64725715	     -9.04986953	      7.41630013	    -10.08094836	      3.57277041	     22.26610564	     -3.18897854	     -5.23773102	    -38.13709393	      5.06022279	     -6.54334833	      0.06502528	     -5.86210622	     -1.88983965	      0.80591959
      0.84150000	      0.57844405	     -0.63154885	      2.70960690	     -0.25653052	      1.04186697	      0.29868034	     -3.16484060	      7.34047513	      0.76677539	     -8.89787809	      7.53469664	    -10.03047252	      3.46402288	     22.27935907	     -3.05941461	     -5.35019034	    -36.28950751	      4.98293625	     -7.05529181	     -0.09975555	     -5.79106460	     -1.92071987	      0.93581131
      0.84566667	      0.49591908	     -0.60854938	      2.56475741	     -0.25138426	      1.04157530	      0.29868421	     -3.45870476	      7.30966959	      0.88085356	     -8.76369647	      7.63113398	     -9.96267833	      3.32329233	     22.25782154	     -2.93631495	     -5.44022109	    -34.38893608	      4.89446639	     -7.57710962	     -0.31625791	     -5.72948309	     -1.94347818	      1.07641117
